<?xml version="1.0" standalone="no"?>
<!DOCTYPE svg PUBLIC "-//W3C//DTD SVG 20010904//EN"
 "http://www.w3.org/TR/2001/REC-SVG-20010904/DTD/svg10.dtd">
<svg version="1.0" xmlns="http://www.w3.org/2000/svg"
 width="474.000000pt" height="376.000000pt" viewBox="0 0 474.000000 376.000000"
 preserveAspectRatio="xMidYMid meet">

<g transform="translate(0.000000,376.000000) scale(0.100000,-0.100000)"
fill="#000000" stroke="none">
<path d="M2032 3525 c-170 -31 -355 -109 -487 -207 -239 -177 -421 -463 -465
-733 -25 -148 -16 -134 -100 -165 -130 -47 -215 -95 -330 -186 -120 -95 -210
-210 -282 -360 -78 -163 -92 -228 -92 -434 0 -162 2 -182 27 -263 87 -284 292
-524 562 -660 71 -35 208 -82 290 -98 57 -11 268 -14 1145 -14 l1075 0 95 27
c205 57 364 135 515 253 245 192 408 445 466 727 18 89 20 126 16 273 -4 125
-11 192 -26 251 -56 224 -179 439 -340 593 -194 185 -458 314 -703 344 l-99
11 -39 71 c-101 183 -288 358 -489 460 -98 49 -259 101 -355 114 -103 14 -293
12 -384 -4z m452 -269 c156 -44 258 -101 365 -206 112 -109 178 -214 236 -372
17 -48 17 -48 64 -48 264 0 545 -112 755 -302 125 -112 243 -306 287 -474 29
-111 30 -280 0 -389 -94 -356 -433 -679 -820 -783 -91 -24 -112 -26 -421 -31
-373 -6 -697 -6 -1270 0 -404 4 -405 4 -505 32 -193 52 -371 156 -478 280
-117 134 -157 237 -165 424 -5 141 6 214 50 320 113 273 366 472 656 517 l77
12 7 96 c33 457 315 828 708 929 62 15 102 18 235 15 108 -2 179 -9 219 -20z"/>
<path d="M1291 2215 c-29 -7 -75 -23 -102 -36 l-49 -22 0 -54 c0 -63 2 -64
108 -28 54 18 95 25 150 25 135 0 179 -41 189 -176 l6 -77 -44 6 c-230 34
-354 4 -426 -104 -24 -36 -29 -55 -32 -122 -4 -102 10 -149 63 -201 52 -53
110 -71 205 -64 78 6 137 30 198 83 l41 35 26 -45 c39 -66 54 -70 110 -34 51
34 56 52 29 102 -15 27 -19 71 -24 272 -5 215 -8 246 -28 297 -27 69 -79 118
-152 141 -61 20 -190 21 -268 2z m277 -471 c19 -5 22 -13 22 -53 -2 -130 -78
-205 -212 -206 -57 0 -70 3 -92 24 -33 31 -50 83 -41 129 9 53 31 81 78 103
35 17 56 19 132 15 50 -3 100 -8 113 -12z"/>
<path d="M3153 2209 c-149 -57 -205 -219 -120 -346 38 -57 83 -84 202 -122 50
-15 109 -38 131 -49 83 -42 85 -135 5 -185 -31 -19 -49 -22 -131 -21 -77 0
-108 5 -165 27 -80 30 -95 25 -95 -32 0 -77 100 -121 278 -122 101 -1 174 22
235 72 97 80 114 235 35 325 -38 43 -79 64 -202 105 -159 52 -202 95 -175 173
12 36 20 43 64 59 63 22 157 17 237 -13 32 -12 62 -19 68 -15 11 7 13 84 2
101 -38 58 -262 84 -369 43z"/>
<path d="M1825 2198 c-6 -16 220 -785 236 -804 12 -15 124 -20 146 -6 12 8 31
79 113 437 23 99 44 182 46 184 2 2 6 -2 8 -10 4 -11 112 -476 132 -569 3 -14
10 -31 16 -37 14 -17 142 -17 156 0 5 6 19 44 30 82 11 39 64 214 117 389 52
176 93 326 91 333 -6 15 -112 18 -136 3 -9 -5 -46 -134 -96 -332 -45 -178 -84
-316 -87 -308 -3 8 -20 80 -37 160 -80 359 -109 473 -122 481 -7 5 -41 9 -75
9 -49 0 -64 -4 -71 -17 -5 -10 -40 -153 -77 -318 -38 -165 -71 -303 -74 -307
-4 -4 -40 128 -80 295 -40 166 -80 312 -87 325 -13 19 -23 22 -80 22 -42 0
-66 -4 -69 -12z"/>
</g>
</svg>
