<?xml version="1.0" encoding="iso-8859-1"?>
<!-- Uploaded to: SVG Repo, www.svgrepo.com, Generator: SVG Repo Mixer Tools -->
<svg height="800px" width="800px" version="1.1" id="Layer_1" xmlns="http://www.w3.org/2000/svg" xmlns:xlink="http://www.w3.org/1999/xlink" 
	 viewBox="0 0 507.9 507.9" xml:space="preserve">
<path style="fill:#FFFFFF;" d="M422.2,260.7c-9.6,1.2-15.7-5.1-16.6-11.8c-6.2-40.8-42.1-71.6-83.3-71.6c-14.6,0-29.1,3.9-41.8,11.2
	c-7,3.7-15.3,2-19.3-5.4c-17.7-31.6-51.1-51.3-87.3-51.3c-59.2,4-101.3,46.1-98.4,116.7c1.1,6.7-2.7,13.3-9.1,15.6
	c-22.8,8.2-38.1,30-38.1,54.1c0,31.8,25.8,57.6,57.6,57.6h336.3c31.8,0,57.6-25.8,57.6-57.6S453.9,260.7,422.2,260.7z"/>
<path style="fill:#56ACE0;" d="M422.9,289c-0.7,0-1.4,0.1-2.1,0.1l-37.5,1.2l-5.7-37.1c-4.2-27.1-28-47.6-55.4-47.6
	c-9.8,0-19.2,2.5-27.8,7.4l-37.1,21.2l-20.9-37.3c-12.7-22.7-36.7-36.8-62.6-36.8c-22.6,0-42.7,10.5-55.9,26.9h76.4
	c7.8,0,14.1,6.3,14.1,14.1s-6.3,14.1-14.1,14.1h-90c-0.1,0-0.2,0-0.3,0c-3.6,14.5-1.7,24-1,28.2h63c7.8,0,14.1,6.3,14.1,14.1
	c0,7.8-6.3,14.1-14.1,14.1h-58.2l1.2,7.2l-33.3,12c-11.6,4.2-19.4,15.3-19.4,27.6c0,16.2,13.2,29.4,29.4,29.4H422
	c16.2,0,29.4-13.2,29.4-29.4C451.6,302.4,438.8,289.4,422.9,289z"/>
<path style="fill:#194F82;" d="M431,233c-12.8-49.2-56.9-83.9-108.8-83.9c-15,0-29.9,3-43.7,8.9c-23.9-33.8-62.9-54.3-104.7-54.3
	c-70.7,0-128.2,57.5-128.2,128.2c0,3.4,0.2,6.9,0.5,10.5C18.1,257,0,286.3,0,318.4c0,47.3,38.5,85.8,85.8,85.8h336.3
	c47.3,0,85.8-38.5,85.8-85.8C508,274,474.2,237.4,431,233z M422.2,376H85.8c-31.8,0-57.6-25.8-57.6-57.6c0-24.1,15.3-45.9,38.1-54.1
	c6.4-2.3,10.3-8.9,9.1-15.6c-2.9-70.8,39.2-112.8,98.4-116.9c36.1,0,69.6,19.6,87.3,51.3c4,7.3,12.3,9.1,19.3,5.4
	c12.8-7.3,27.2-11.2,41.8-11.2c41.3,0,77.1,30.8,83.3,71.6c0.9,6.7,7.1,13.1,16.6,11.8c31.8,0,57.6,25.8,57.6,57.6
	S453.9,376,422.2,376z"/>
</svg>